{"title":"Pokemon Black and White -34- Ash and Trip's Third Battle! 720p ","uid":6650597,"size":105186700,"categoryP":"video","categoryS":"hd___tv_shows","magnet":"?xt=urn:btih:c8d7e225a963b5964fa7c6a9934533d16f26ad13&amp;dn=Pokemon+Black+and+White+-34-+Ash+and+Trip%5C%27s+Third+Battle%21+720p+&amp;tr=udp%3A%2F%2Ftracker.openbittorrent.com%3A80&amp;tr=udp%3A%2F%2Fopen.demonii.com%3A1337&amp;tr=udp%3A%2F%2Ftracker.coppersurfer.tk%3A6969&amp;tr=udp%3A%2F%2Fexodus.desync.com%3A6969","seeders":0,"leechers":0,"uploader":"salmansk","files":4,"time":1315135444,"description":"\n\n\n\n\n\n\nComplete name                    : Pokemon Black and White -34- Ash and Trip's Third Battle! 720p by salman sk.m4v\nFormat                           : MPEG-4\nFormat profile                   : Base Media / Version 2\nCodec ID                         : mp42\nFile size                        : 100 MiB\nDuration                         : 21mn 19s\nOverall bit rate                 : 658 Kbps\n\nID                               : 1\nFormat                           : AVC\nFormat/Info                      : Advanced Video Codec\nFormat profile                   : &lt;a class=&quot;__cf_email__&quot; href=&quot;/cdn-cgi/l/email-protection&quot; data-cfemail=&quot;88c5e9e1e6c8c4bba6b9&quot;&gt;[email&amp;#160;protected]&lt;/a&gt;&lt;script data-cfhash='f9e31' type=&quot;text/javascript&quot;&gt;\n/* &lt;![CDATA[ */!function(){try{var t=&quot;currentScript&quot;in document?document.currentScript:function(){for(var t=document.getElementsByTagName(&quot;script&quot;),e=t.length;e--;)if(t[e].getAttribute(&quot;data-cfhash&quot;))return t[e]}();if(t&amp;&amp;t.previousSibling){var e,r,n,i,c=t.previousSibling,a=c.getAttribute(&quot;data-cfemail&quot;);if(a){for(e=&quot;&quot;,r=parseInt(a.substr(0,2),16),n=2;a.length-n;n+=2)i=parseInt(a.substr(n,2),16)^r,e+=String.fromCharCode(i);e=document.createTextNode(e),c.parentNode.replaceChild(e,c)}t.parentNode.removeChild(t);}}catch(u){}}()/* ]]&gt; */&lt;/script&gt;\nFormat settings, CABAC           : Yes\nFormat settings, ReFrames        : 4 frames\nCodec ID                         : avc1\nCodec ID/Info                    : Advanced Video Coding\nDuration                         : 21mn 19s\nBit rate mode                    : Variable\nBit rate                         : 491 Kbps\nWidth                            : 1 280 pixels\nHeight                           : 720 pixels\nDisplay aspect ratio             : 16:9\nFrame rate mode                  : Variable\nFrame rate                       : 29.926 fps\nMinimum frame rate               : 9.901 fps\nMaximum frame rate               : 30.303 fps\nColor space                      : YUV\nChroma subsampling               : 4:2:0\nBit depth                        : 8 bits\nScan type                        : Progressive\nBits/(Pixel*Frame)               : 0.018\nStream size                      : 74.9 MiB (75%)\nWriting library                  : x264 core 112\n\n\nID                               : 2\nFormat                           : AAC\nFormat/Info                      : Advanced Audio Codec\nFormat version                   : Version 4\nFormat profile                   : LC\nFormat settings, SBR             : No\nCodec ID                         : 40\nDuration                         : 21mn 19s\nBit rate mode                    : Variable\nBit rate                         : 160 Kbps\nMaximum bit rate                 : 195 Kbps\nChannel(s)                       : 2 channels\nChannel positions                : Front: L R\nSampling rate                    : 48.0 KHz\nStream size                      : 24.4 MiB (24%)\nLanguage                         : English","torrent":{"xt":"urn:btih:c8d7e225a963b5964fa7c6a9934533d16f26ad13","amp;dn":"Pokemon+Black+and+White+-34-+Ash+and+Trip%5C%27s+Third+Battle%21+720p+","amp;tr":["udp%3A%2F%2Ftracker.openbittorrent.com%3A80","udp%3A%2F%2Fopen.demonii.com%3A1337","udp%3A%2F%2Ftracker.coppersurfer.tk%3A6969","udp%3A%2F%2Fexodus.desync.com%3A6969"],"infoHash":"c8d7e225a963b5964fa7c6a9934533d16f26ad13","infoHashBuffer":{"type":"Buffer","data":[200,215,226,37,169,99,181,150,79,167,198,169,147,69,51,209,111,38,173,19]},"announce":[],"urlList":[]}}